PathFileType	4	(X/Y/Z)	D:\TRACE\v60_Jaco2_6-2-23\JustBodyDRS_Motion2_8-platform.trc
DataRate	CameraRate	NumFrames	NumMarkers	Units	OrigDataRate	OrigDataStartFrame	OrigNumFrames
100.00	100.00	      60	5	mm	100.00	865	      6914
Frame#	Time	Left_Front			Right_Front			Left_Aft			Right_Aft			Post			
		X1	Y1	Z1	X2	Y2	Z2	X3	Y3	Z3	X4	Y4	Z4	X5	Y5	Z5	

865	8.640	-758.24402	71.53320	-620.91180	812.02747	72.54846	-626.07416	-666.16254	-36.87977	508.92178	775.49286	-39.71564	519.32739	28.88753	1395.35242	-819.63995	
866	8.650	-758.84076	71.77971	-620.99866	811.39465	72.63960	-625.90643	-666.76868	-36.99047	508.90756	775.40424	-39.82311	519.17120	28.28010	1395.53589	-818.96497	
867	8.660	-759.42737	72.04648	-621.14301	810.76703	72.85655	-625.85822	-667.31989	-36.85680	508.79898	774.26233	-39.68786	519.56409	27.36838	1395.72437	-818.05859	
868	8.670	-759.96521	72.08392	-620.90289	810.16486	73.06618	-625.93585	-667.82690	-36.90946	508.96152	774.17664	-39.92392	519.17358	26.97977	1395.78442	-817.41150	
869	8.680	-760.43347	72.04012	-620.78845	809.51941	73.06853	-625.98981	-668.76196	-37.01380	508.89587	773.10687	-39.77144	519.56104	26.08991	1395.68347	-816.62067	
870	8.690	-761.14410	72.09376	-620.75964	808.96985	72.91554	-625.98706	-669.44385	-36.99641	508.94199	772.90430	-39.95543	519.09668	25.60725	1395.43762	-816.42780	
871	8.700	-761.96161	72.14519	-620.73761	808.02972	72.85251	-625.90594	-670.10797	-36.71426	508.76276	772.27802	-39.75802	519.09961	24.67299	1395.51379	-816.72754	
872	8.710	-762.68665	72.02364	-620.92139	807.35443	72.64651	-625.89258	-670.86377	-36.67920	508.83945	771.50732	-39.53079	519.13025	24.09998	1395.48169	-817.28418	
873	8.720	-763.51288	71.88955	-620.98199	806.54694	72.28759	-625.97791	-671.62964	-36.64770	508.86145	771.16772	-39.39949	519.13226	23.37154	1395.56018	-818.14447	
874	8.730	-764.02582	71.72804	-620.94025	806.18622	72.29931	-626.02112	-672.20959	-36.59958	508.99353	770.24030	-39.59884	519.43591	22.68030	1395.26672	-819.21057	
875	8.740	-764.63763	71.60311	-620.91284	805.45953	72.49449	-625.96661	-672.95715	-36.56448	508.76526	769.22314	-39.58687	519.05768	22.37617	1395.09912	-819.80847	
876	8.750	-765.62421	71.53278	-620.86096	804.49585	72.11888	-626.06641	-674.02393	-36.46336	508.49844	768.56354	-39.40272	518.97424	21.20448	1395.05249	-820.78253	
877	8.760	-766.36493	71.57560	-621.15167	803.51215	71.81003	-626.22491	-674.43500	-36.49687	508.43463	768.13770	-39.16245	518.85284	20.65523	1394.99951	-821.05383	
878	8.770	-767.22223	71.43349	-621.20825	802.94977	71.65437	-626.30371	-675.26239	-36.24753	508.56982	766.56903	-38.59848	519.04456	19.98550	1394.45410	-821.02325	
879	8.780	-767.62286	71.00081	-621.36920	802.16553	71.48502	-626.32605	-675.99310	-36.19341	508.71097	766.03113	-38.53069	518.91144	18.72557	1394.13086	-820.75720	
880	8.790	-768.83459	70.20225	-621.26373	801.40277	71.17790	-626.33173	-676.80707	-36.15309	508.80450	765.33252	-38.41804	518.86493	17.64612	1393.36011	-820.72302	
881	8.800	-769.83228	69.97120	-621.43671	800.17493	70.51706	-626.74060	-677.69080	-35.74180	508.39481	764.45160	-38.05817	518.78534	17.27944	1392.64258	-820.94971	
882	8.810	-770.58234	69.37128	-621.75665	799.47839	70.21473	-626.80084	-678.66962	-35.24065	508.37897	763.85260	-37.59536	518.79340	16.42906	1392.01758	-821.63934	
883	8.820	-771.24158	68.89806	-621.93109	798.88733	69.91598	-626.80011	-679.44885	-34.88605	508.42398	762.85675	-37.00449	519.05420	15.45993	1391.43347	-823.28522	
884	8.830	-772.18518	68.39895	-621.80188	797.85492	69.18071	-627.11798	-679.73962	-35.01656	509.51215	761.67157	-36.56360	518.37256	14.32750	1390.96570	-825.12701	
885	8.840	-773.39178	67.82767	-621.92432	796.72968	68.55862	-627.18146	-681.18207	-34.18011	508.42926	760.95020	-36.45305	518.25623	13.23818	1390.10486	-827.42328	
886	8.850	-774.21014	67.42968	-622.47089	796.20624	68.22870	-627.29987	-682.23248	-33.98762	508.24985	760.22504	-35.75557	517.72223	12.88352	1389.47913	-829.81543	
887	8.860	-774.88843	67.01534	-622.61810	795.09387	67.31181	-627.57220	-682.92712	-33.65764	508.08725	759.04346	-35.78998	517.89221	11.97638	1388.88623	-831.94031	
888	8.870	-775.69574	66.52491	-622.74170	793.97656	66.98123	-627.83984	-684.04309	-32.99405	507.96371	757.97260	-35.12662	517.85553	10.87077	1388.14502	-833.69354	
889	8.880	-776.91321	65.83540	-622.78668	793.28668	66.58125	-627.93073	-684.82538	-32.56461	507.86899	757.29010	-34.78944	517.63507	10.07569	1387.77722	-835.20032	
890	8.890	-778.12109	65.08109	-622.91309	792.19305	65.77750	-628.17737	-685.76581	-31.72085	507.60922	756.19812	-34.20480	517.57471	8.87699	1386.71521	-836.42816	
891	8.900	-778.79333	64.52355	-623.41040	791.20776	65.28632	-628.38568	-686.87085	-31.59068	507.61395	755.36700	-33.73508	517.43744	8.03843	1385.73352	-837.37183	
892	8.910	-779.78772	63.59165	-623.26184	790.09088	64.11900	-628.61334	-687.97577	-31.15838	507.52136	753.94427	-33.37705	517.44580	6.89909	1384.63049	-837.83112	
893	8.920	-780.85388	62.93226	-623.83496	789.31122	63.44608	-628.88397	-688.85529	-30.24776	507.60095	753.23535	-32.60793	517.38184	5.98965	1383.56616	-838.37311	
894	8.930	-782.17279	62.34644	-624.09955	788.20807	62.81033	-629.13983	-690.02234	-29.58538	507.42719	752.22998	-31.91186	517.07800	4.83793	1382.51282	-839.48224	
895	8.940	-782.89484	61.09930	-624.09338	787.06183	61.95010	-629.36285	-691.04199	-29.05863	507.26205	751.22607	-31.42167	516.83551	3.56302	1381.46863	-840.96942	
896	8.950	-783.75793	60.31942	-624.35455	786.27765	61.12506	-629.53394	-692.00690	-28.50904	507.18185	750.36591	-30.77579	516.70709	2.53415	1380.16858	-842.99554	
897	8.960	-785.03064	59.37362	-624.76746	785.13135	60.15519	-629.94781	-692.89349	-28.22098	507.19553	748.73749	-30.15355	516.56128	1.57930	1379.07166	-845.55939	
898	8.970	-786.21350	58.97189	-625.30371	784.14557	59.19410	-629.94037	-693.70349	-27.82785	506.92960	747.81384	-29.43674	516.55487	0.39863	1377.86670	-848.60718	
899	8.980	-787.06885	57.78313	-625.44666	783.10956	58.32986	-630.44751	-695.12225	-26.48672	506.60358	747.14014	-28.87940	516.39203	-0.05179	1376.85034	-852.01337	
900	8.990	-787.88098	56.78948	-625.67334	781.89911	57.57977	-630.76660	-696.20795	-25.85762	506.58423	746.16290	-28.04958	516.19000	-1.44789	1375.56445	-855.37823	
901	9.000	-789.20868	55.98221	-626.20764	780.96063	56.57771	-631.00659	-697.35791	-25.28455	506.26740	744.94879	-27.31242	516.09186	-2.34108	1374.37561	-858.46478	
902	9.010	-790.53247	54.93364	-626.17834	779.91748	55.59530	-631.29089	-698.87207	-24.02524	506.05951	743.49878	-26.68828	515.89197	-3.44850	1373.14270	-860.74139	
903	9.020	-791.41718	53.72675	-626.39990	778.64624	54.56592	-631.70630	-699.37543	-23.93560	505.84833	742.74054	-26.08898	515.62543	-4.68650	1371.69934	-862.72089	
904	9.030	-792.34229	52.84780	-626.86041	777.55829	53.41113	-631.97058	-700.88141	-22.92127	505.74945	741.64063	-25.27191	515.47882	-5.79070	1370.10303	-864.82178	
905	9.040	-793.67908	51.89771	-627.22931	776.53333	52.44747	-632.37006	-701.84576	-22.26349	505.49240	740.73834	-24.41713	515.26843	-6.58171	1368.83008	-866.36511	
906	9.050	-794.82123	50.85566	-627.48059	775.17255	51.71254	-632.67822	-702.90411	-21.37549	505.30338	739.51678	-23.50034	515.13049	-8.20116	1367.28540	-867.63885	
907	9.060	-795.80048	49.90337	-627.76831	774.32837	50.97913	-632.84644	-703.94897	-20.56920	504.97849	738.38690	-22.69837	514.67834	-9.44164	1365.41321	-869.06610	
908	9.070	-796.94067	48.22849	-628.29431	773.16803	49.31883	-633.41125	-705.09009	-19.70071	504.68988	737.35425	-21.89860	514.37518	-10.61238	1363.90735	-871.06702	
909	9.080	-797.99817	46.78848	-628.90582	772.15613	47.59365	-633.79681	-706.03790	-18.94542	504.65680	735.97711	-20.80919	514.13342	-11.77999	1362.21765	-873.78278	
910	9.090	-799.21320	45.79542	-628.94727	771.05383	46.63500	-634.06848	-707.33698	-17.98551	504.34259	735.09088	-19.91129	513.95386	-12.50726	1360.27783	-876.67950	
911	9.100	-800.42932	44.52789	-629.44183	769.66101	45.54182	-634.34375	-708.48242	-17.22969	504.25043	734.02155	-19.18685	513.77863	-13.69270	1358.86035	-880.98309	
912	9.110	-801.61267	43.46653	-629.79852	768.57080	44.62756	-634.79309	-709.65131	-16.33540	504.06195	732.79993	-18.19698	513.72705	-14.97230	1357.26514	-884.78845	
913	9.120	-802.57086	42.48077	-629.80457	767.57227	43.32448	-634.97778	-710.65704	-15.44692	503.92038	731.44659	-17.51339	513.44977	-16.04045	1355.92395	-889.31799	
914	9.130	-803.82251	41.21363	-630.24817	766.40704	42.05223	-635.60602	-711.70282	-14.75053	503.65363	730.49719	-16.55199	513.08423	-16.91234	1354.19824	-892.96619	
915	9.140	-804.96198	39.72333	-630.74207	765.15833	40.80700	-635.74908	-712.93701	-13.85192	503.32404	729.29034	-15.69977	512.62500	-17.56344	1352.57410	-896.66522	
916	9.150	-806.00970	38.55365	-630.97864	764.07507	39.52589	-636.08020	-713.93860	-13.13860	503.08578	727.87372	-14.87778	512.51819	-18.87953	1351.11035	-899.79907	
917	9.160	-807.07916	37.70670	-631.53217	762.93561	38.40284	-636.54865	-715.28912	-12.16964	502.80106	727.10236	-13.81789	512.29236	-20.21293	1349.17554	-902.65173	
918	9.170	-808.49255	36.42669	-631.42780	761.91565	37.30368	-636.83142	-716.36340	-11.33139	502.58105	725.64825	-13.01997	511.92593	-21.45376	1347.47742	-905.21722	
919	9.180	-809.46515	34.97712	-632.04712	760.75336	35.89841	-637.05005	-717.62317	-10.31125	502.12106	724.90839	-11.76271	511.74625	-22.38088	1345.46643	-907.35529	
920	9.190	-810.60571	33.44039	-632.57849	759.56958	34.71912	-637.57880	-718.55298	-9.28646	501.95084	723.50745	-10.78236	511.44397	-23.70679	1343.66626	-909.35443	
921	9.200	-811.64099	31.88103	-632.76056	758.55963	33.08526	-637.81622	-719.74408	-8.36179	501.52161	722.32513	-9.80889	511.20810	-25.00455	1341.57483	-911.44153	
922	9.210	-812.85419	30.60887	-632.95880	757.32886	31.64123	-638.21112	-721.02869	-7.36402	501.22043	720.91309	-8.95925	510.95422	-26.57596	1339.63440	-912.94470	
923	9.220	-814.13824	29.46154	-633.65143	756.14886	30.46375	-638.71973	-722.08557	-6.48179	501.08414	719.86407	-7.95788	510.61557	-27.36243	1337.53784	-914.79449	
924	9.230	-815.05994	27.78633	-633.80713	755.20624	29.24312	-638.88544	-723.24762	-5.42846	500.76682	718.93103	-6.89705	510.33627	-28.68431	1335.82019	-917.25739	
